<svg width="117" height="23" viewBox="0 0 117 23" fill="none" xmlns="http://www.w3.org/2000/svg">
<path d="M8.87203 21.58C7.97203 21.58 7.09203 21.51 6.23203 21.37C5.37203 21.23 4.60203 21.06 3.92203 20.86C3.26203 20.66 2.73203 20.45 2.33203 20.23C1.93203 20.01 1.73203 19.81 1.73203 19.63C1.73203 19.13 1.79203 18.43 1.91203 17.53C2.05203 16.63 2.12203 15.39 2.12203 13.81V10.48C2.12203 9.16 2.17203 8.09 2.27203 7.27C2.39203 6.43 2.51203 5.78 2.63203 5.32H1.61203L0.112031 3.31L0.352031 2.83H2.75203C3.69203 2.83 4.44203 2.81 5.00203 2.77C5.58203 2.73 6.16203 2.71 6.74203 2.71C7.26203 2.71 7.83203 2.87 8.45203 3.19C9.07203 3.51 9.66203 3.92 10.222 4.42C10.802 4.92 11.272 5.44 11.632 5.98C12.012 6.5 12.202 6.96 12.202 7.36V8.71C12.202 9.63 12.052 10.45 11.752 11.17C11.472 11.89 11.052 12.45 10.492 12.85C11.272 13.43 11.842 14.04 12.202 14.68C12.582 15.3 12.772 16 12.772 16.78V17.38C12.772 18.78 12.422 19.83 11.722 20.53C11.042 21.23 10.092 21.58 8.87203 21.58ZM8.00203 5.32C7.64203 5.32 7.26203 5.34 6.86203 5.38C6.48203 5.4 6.09203 5.44 5.69203 5.5C5.55203 6.04 5.42203 6.71 5.30203 7.51C5.20203 8.29 5.15203 9.21 5.15203 10.27V10.84H6.98203C7.42203 10.84 7.81203 10.78 8.15203 10.66C8.49203 10.52 8.75203 10.25 8.93203 9.85C9.13203 9.45 9.23203 8.85 9.23203 8.05V6.85C9.23203 6.25 9.14203 5.85 8.96203 5.65C8.78203 5.43 8.46203 5.32 8.00203 5.32ZM5.15203 15.16C5.15203 15.98 5.13203 16.7 5.09203 17.32C5.05203 17.92 5.00203 18.47 4.94203 18.97C5.44203 19.09 5.93203 19.15 6.41203 19.15C7.63203 19.15 8.47203 18.88 8.93203 18.34C9.41203 17.8 9.65203 17.09 9.65203 16.21V15.73C9.65203 14.65 9.43203 13.97 8.99203 13.69C8.55203 13.39 7.96203 13.24 7.22203 13.24H5.15203V15.16ZM25.583 21.85C25.103 21.69 24.663 21.53 24.263 21.37C23.863 21.19 23.483 21 23.123 20.8C22.843 21.08 22.503 21.31 22.103 21.49C21.723 21.65 21.283 21.73 20.783 21.73C20.443 21.73 19.943 21.62 19.283 21.4C18.643 21.18 17.983 20.9 17.303 20.56C16.623 20.2 16.043 19.81 15.563 19.39C15.103 18.95 14.873 18.52 14.873 18.1C14.873 17.58 14.873 17.12 14.873 16.72C14.893 16.3 14.903 16.05 14.903 15.97C14.903 14.79 15.203 13.96 15.803 13.48C16.423 12.98 17.283 12.73 18.383 12.73C18.943 12.73 19.543 12.77 20.183 12.85C20.823 12.93 21.343 13.02 21.743 13.12C21.763 12.56 21.773 12.03 21.773 11.53C21.793 11.01 21.803 10.62 21.803 10.36C21.803 10.14 21.743 9.98 21.623 9.88C21.503 9.78 21.283 9.73 20.963 9.73C20.183 9.73 19.523 9.79 18.983 9.91C18.443 10.03 17.933 10.23 17.453 10.51H16.883L14.933 7.66L15.173 7.18H20.183C20.583 7.18 21.033 7.34 21.533 7.66C22.053 7.96 22.563 8.34 23.063 8.8C23.563 9.26 23.973 9.73 24.293 10.21C24.613 10.69 24.773 11.11 24.773 11.47C24.773 12.13 24.753 12.91 24.713 13.81C24.673 14.71 24.633 15.63 24.593 16.57C24.553 17.49 24.533 18.33 24.533 19.09C24.533 19.69 24.633 20.11 24.833 20.35C25.033 20.57 25.413 20.79 25.973 21.01L25.583 21.85ZM17.843 18.1C17.843 18.6 17.933 18.92 18.113 19.06C18.293 19.18 18.513 19.24 18.773 19.24C19.593 19.24 20.273 19.03 20.813 18.61C21.373 18.17 21.653 17.49 21.653 16.57C21.653 16.39 21.653 16.17 21.653 15.91C21.673 15.65 21.683 15.36 21.683 15.04C21.463 14.98 21.193 14.94 20.873 14.92C20.553 14.9 20.263 14.89 20.003 14.89C19.283 14.89 18.743 15.05 18.383 15.37C18.023 15.69 17.843 16.25 17.843 17.05V18.1ZM28.5499 21.46L26.8099 18.85C27.1099 18.35 27.5299 17.69 28.0699 16.87C28.6299 16.05 29.2199 15.18 29.8399 14.26C30.4799 13.32 31.0799 12.43 31.6399 11.59C32.2199 10.75 32.6799 10.07 33.0199 9.55H32.5099C31.5299 9.55 30.7499 9.61 30.1699 9.73C29.6099 9.85 29.1499 10.07 28.7899 10.39H28.2799L26.4499 7.69L26.6899 7.18H34.0099L35.9599 9.85C35.7799 10.15 35.4999 10.59 35.1199 11.17C34.7599 11.75 34.3399 12.41 33.8599 13.15C33.3999 13.87 32.9199 14.61 32.4199 15.37C31.9399 16.11 31.4799 16.81 31.0399 17.47C30.6199 18.11 30.2799 18.64 30.0199 19.06H30.1999C30.7799 19.08 31.5099 19.08 32.3899 19.06C33.2899 19.02 34.1699 18.93 35.0299 18.79L36.4699 20.95L36.2299 21.46H28.5499ZM38.6866 21.46L36.9466 18.85C37.2466 18.35 37.6666 17.69 38.2066 16.87C38.7666 16.05 39.3566 15.18 39.9766 14.26C40.6166 13.32 41.2166 12.43 41.7766 11.59C42.3566 10.75 42.8166 10.07 43.1566 9.55H42.6466C41.6666 9.55 40.8866 9.61 40.3066 9.73C39.7466 9.85 39.2866 10.07 38.9266 10.39H38.4166L36.5866 7.69L36.8266 7.18H44.1466L46.0966 9.85C45.9166 10.15 45.6366 10.59 45.2566 11.17C44.8966 11.75 44.4766 12.41 43.9966 13.15C43.5366 13.87 43.0566 14.61 42.5566 15.37C42.0766 16.11 41.6166 16.81 41.1766 17.47C40.7566 18.11 40.4166 18.64 40.1566 19.06H40.3366C40.9166 19.08 41.6466 19.08 42.5266 19.06C43.4266 19.02 44.3066 18.93 45.1666 18.79L46.6066 20.95L46.3666 21.46H38.6866ZM58.4834 21.85C58.0034 21.69 57.5634 21.53 57.1634 21.37C56.7634 21.19 56.3834 21 56.0234 20.8C55.7434 21.08 55.4034 21.31 55.0034 21.49C54.6234 21.65 54.1834 21.73 53.6834 21.73C53.3434 21.73 52.8434 21.62 52.1834 21.4C51.5434 21.18 50.8834 20.9 50.2034 20.56C49.5234 20.2 48.9434 19.81 48.4634 19.39C48.0034 18.95 47.7734 18.52 47.7734 18.1C47.7734 17.58 47.7734 17.12 47.7734 16.72C47.7934 16.3 47.8034 16.05 47.8034 15.97C47.8034 14.79 48.1034 13.96 48.7034 13.48C49.3234 12.98 50.1834 12.73 51.2834 12.73C51.8434 12.73 52.4434 12.77 53.0834 12.85C53.7234 12.93 54.2434 13.02 54.6434 13.12C54.6634 12.56 54.6734 12.03 54.6734 11.53C54.6934 11.01 54.7034 10.62 54.7034 10.36C54.7034 10.14 54.6434 9.98 54.5234 9.88C54.4034 9.78 54.1834 9.73 53.8634 9.73C53.0834 9.73 52.4234 9.79 51.8834 9.91C51.3434 10.03 50.8334 10.23 50.3534 10.51H49.7834L47.8334 7.66L48.0734 7.18H53.0834C53.4834 7.18 53.9334 7.34 54.4334 7.66C54.9534 7.96 55.4634 8.34 55.9634 8.8C56.4634 9.26 56.8734 9.73 57.1934 10.21C57.5134 10.69 57.6734 11.11 57.6734 11.47C57.6734 12.13 57.6534 12.91 57.6134 13.81C57.5734 14.71 57.5334 15.63 57.4934 16.57C57.4534 17.49 57.4334 18.33 57.4334 19.09C57.4334 19.69 57.5334 20.11 57.7334 20.35C57.9334 20.57 58.3134 20.79 58.8734 21.01L58.4834 21.85ZM50.7434 18.1C50.7434 18.6 50.8334 18.92 51.0134 19.06C51.1934 19.18 51.4134 19.24 51.6734 19.24C52.4934 19.24 53.1734 19.03 53.7134 18.61C54.2734 18.17 54.5534 17.49 54.5534 16.57C54.5534 16.39 54.5534 16.17 54.5534 15.91C54.5734 15.65 54.5834 15.36 54.5834 15.04C54.3634 14.98 54.0934 14.94 53.7734 14.92C53.4534 14.9 53.1634 14.89 52.9034 14.89C52.1834 14.89 51.6434 15.05 51.2834 15.37C50.9234 15.69 50.7434 16.25 50.7434 17.05V18.1ZM65.7159 22.27C63.9959 21.71 62.7559 21.23 61.9959 20.83C61.2359 20.41 60.8559 20.11 60.8559 19.93C60.8559 19.71 60.8859 19.33 60.9459 18.79C61.0259 18.25 61.0659 17.41 61.0659 16.27V12.55C61.0659 12.15 61.0859 11.68 61.1259 11.14C61.1659 10.58 61.2259 10.11 61.3059 9.73H60.1959L58.6359 7.66L58.8459 7.18H61.6659C61.7659 7.18 61.9459 7.33 62.2059 7.63C62.4859 7.91 62.7659 8.22 63.0459 8.56C63.3659 8.04 63.8059 7.66 64.3659 7.42C64.9459 7.18 65.5559 7.06 66.1959 7.06C66.5159 7.06 66.7559 7.08 66.9159 7.12L68.4159 9.22L68.1759 9.58C66.7759 9.56 65.7359 9.83 65.0559 10.39C64.3759 10.95 64.0359 11.98 64.0359 13.48V16.69C64.0359 17.69 64.0059 18.47 63.9459 19.03C63.9059 19.57 63.8859 19.93 63.8859 20.11C63.8859 20.23 63.9259 20.34 64.0059 20.44C64.0859 20.52 64.2759 20.62 64.5759 20.74C64.8959 20.86 65.3959 21.06 66.0759 21.34L65.7159 22.27ZM79.9622 21.79C79.7422 21.79 79.4022 21.66 78.9422 21.4C78.5022 21.12 78.0322 20.79 77.5322 20.41C77.0522 20.01 76.6322 19.63 76.2722 19.27C75.9322 18.91 75.7422 18.65 75.7022 18.49C75.2222 16.21 74.8222 14.36 74.5022 12.94C74.2022 11.5 73.9622 10.37 73.7822 9.55C73.6222 8.71 73.5122 8.07 73.4522 7.63C73.3922 7.17 73.3622 6.78 73.3622 6.46C73.3622 6.02 73.4122 5.64 73.5122 5.32H72.6722L71.2922 3.31L71.5022 2.83H75.5822L76.9922 4.93V5.32C76.5522 5.54 76.2422 5.8 76.0622 6.1C75.9022 6.4 75.8222 6.82 75.8222 7.36C75.8222 7.54 75.8422 7.8 75.8822 8.14C75.9422 8.46 76.0422 8.98 76.1822 9.7C76.3222 10.42 76.5322 11.46 76.8122 12.82C77.0922 14.18 77.4622 15.99 77.9222 18.25C78.4022 16.63 78.9322 14.68 79.5122 12.4C80.0922 10.12 80.6922 7.76 81.3122 5.32H80.0522L78.7022 3.31L78.9122 2.83H82.9322L84.6122 5.32C84.4122 6 84.1722 6.87 83.8922 7.93C83.6122 8.99 83.3122 10.14 82.9922 11.38C82.6922 12.62 82.3822 13.85 82.0622 15.07C81.7622 16.29 81.4722 17.41 81.1922 18.43C80.9122 19.45 80.6622 20.27 80.4422 20.89C80.2222 21.49 80.0622 21.79 79.9622 21.79ZM88.4023 5.17L86.4223 3.04V2.74C86.9623 2.02 87.6923 1.39 88.6123 0.849999L90.5923 2.92L90.5623 3.28C90.1623 3.56 89.7823 3.87 89.4223 4.21C89.0823 4.55 88.7423 4.87 88.4023 5.17ZM91.0723 22.06C89.7923 21.58 88.8023 21.15 88.1023 20.77C87.4223 20.37 87.0823 20.01 87.0823 19.69C87.0823 19.41 87.1123 18.98 87.1723 18.4C87.2523 17.8 87.2923 17.22 87.2923 16.66V12.37C87.2923 11.85 87.3123 11.37 87.3523 10.93C87.4123 10.47 87.5023 10.07 87.6223 9.73H86.6323L85.0423 7.69L85.2523 7.18H89.0923L90.8323 9.52C90.5923 9.84 90.4323 10.24 90.3523 10.72C90.2923 11.2 90.2623 11.81 90.2623 12.55V16.99C90.2623 17.71 90.2323 18.35 90.1723 18.91C90.1123 19.45 90.0823 19.86 90.0823 20.14C90.0823 20.34 90.1523 20.5 90.2923 20.62C90.4523 20.72 90.8323 20.93 91.4323 21.25L91.0723 22.06ZM99.6 21.85C99.38 21.85 99.03 21.79 98.55 21.67C98.09 21.55 97.58 21.39 97.02 21.19C96.46 20.97 95.92 20.72 95.4 20.44C94.88 20.16 94.45 19.86 94.11 19.54C93.79 19.22 93.63 18.9 93.63 18.58C93.63 17.96 93.66 17.29 93.72 16.57C93.78 15.83 93.82 14.85 93.84 13.63V8.59C93.84 7.39 93.88 6.29 93.96 5.29C94.06 4.27 94.18 3.45 94.32 2.83H93.03L91.38 0.879998L91.59 0.399999H95.49L97.26 2.68C97.12 3.38 97.01 4.17 96.93 5.05C96.87 5.91 96.83 6.8 96.81 7.72C97.11 7.52 97.47 7.35 97.89 7.21C98.33 7.05 98.8 6.97 99.3 6.97C99.7 6.97 100.16 7.15 100.68 7.51C101.22 7.85 101.74 8.28 102.24 8.8C102.76 9.3 103.18 9.81 103.5 10.33C103.84 10.83 104.01 11.25 104.01 11.59C104.01 11.89 104 12.35 103.98 12.97C103.98 13.57 103.97 14.26 103.95 15.04C103.93 15.82 103.92 16.62 103.92 17.44C103.92 18.76 103.55 19.83 102.81 20.65C102.09 21.45 101.02 21.85 99.6 21.85ZM96.69 18.67C96.69 19.09 97.01 19.3 97.65 19.3C98.65 19.3 99.45 19.1 100.05 18.7C100.65 18.3 100.95 17.51 100.95 16.33C100.95 15.15 100.97 14.07 101.01 13.09C101.05 12.09 101.07 11.27 101.07 10.63C101.07 10.29 100.99 10.05 100.83 9.91C100.69 9.75 100.38 9.67 99.9 9.67C98.76 9.67 97.96 9.9 97.5 10.36C97.04 10.8 96.81 11.55 96.81 12.61V14.38C96.81 15.36 96.79 16.27 96.75 17.11C96.71 17.93 96.69 18.45 96.69 18.67ZM112.491 21.79C112.011 21.79 111.421 21.67 110.721 21.43C110.021 21.17 109.321 20.84 108.621 20.44C107.941 20.02 107.371 19.57 106.911 19.09C106.451 18.59 106.221 18.1 106.221 17.62C106.221 17.14 106.251 16.31 106.311 15.13C106.391 13.95 106.431 12.54 106.431 10.9C106.431 8.3 107.851 7 110.691 7C111.131 7 111.641 7.14 112.221 7.42C112.801 7.68 113.361 8.03 113.901 8.47C114.441 8.89 114.891 9.33 115.251 9.79C115.611 10.25 115.791 10.68 115.791 11.08V13.54C115.791 15.16 114.891 15.97 113.091 15.97C112.531 15.97 111.891 15.94 111.171 15.88C110.451 15.8 109.811 15.71 109.251 15.61C109.231 16.27 109.211 16.87 109.191 17.41C109.191 17.93 109.191 18.23 109.191 18.31C109.191 18.63 109.271 18.86 109.431 19C109.591 19.14 109.881 19.21 110.301 19.21C110.921 19.21 111.591 19.12 112.311 18.94C113.051 18.74 113.711 18.45 114.291 18.07H114.741L116.361 20.53C115.981 20.89 115.411 21.19 114.651 21.43C113.911 21.67 113.191 21.79 112.491 21.79ZM109.341 11.86C109.341 12.02 109.331 12.26 109.311 12.58C109.311 12.9 109.311 13.26 109.311 13.66C109.891 13.72 110.561 13.75 111.321 13.75C111.901 13.75 112.301 13.61 112.521 13.33C112.761 13.03 112.881 12.58 112.881 11.98V10.36C112.881 10.14 112.821 9.95 112.701 9.79C112.581 9.63 112.321 9.55 111.921 9.55C111.121 9.55 110.491 9.72 110.031 10.06C109.571 10.38 109.341 10.98 109.341 11.86Z" fill="#15803D"/>
</svg>
