<svg width="166" height="50" viewBox="0 0 166 50" fill="none" xmlns="http://www.w3.org/2000/svg">
<rect width="166" height="50" rx="14" fill="white"/>
<path d="M61.288 28.296C61.336 28.344 61.368 28.424 61.384 28.536C61.4 28.632 61.408 28.736 61.408 28.848C61.424 28.944 61.432 29.04 61.432 29.136C61.432 29.216 61.432 29.28 61.432 29.328C61.464 29.552 61.456 29.808 61.408 30.096C61.376 30.384 61.296 30.632 61.168 30.84L60.856 31.368C60.728 31.56 60.616 31.696 60.52 31.776C60.44 31.84 60.328 31.96 60.184 32.136C60.12 32.232 60.04 32.32 59.944 32.4C59.848 32.464 59.76 32.536 59.68 32.616L59.2 32.832C59.072 32.896 58.928 32.952 58.768 33C58.624 33.048 58.488 33.072 58.36 33.072C57.96 33.136 57.56 33.2 57.16 33.264C56.76 33.328 56.352 33.36 55.936 33.36C55.808 33.36 55.656 33.36 55.48 33.36C55.304 33.376 55.152 33.384 55.024 33.384C54.896 33.4 54.752 33.376 54.592 33.312C54.448 33.264 54.328 33.24 54.232 33.24L53.512 33.168C53.432 33.152 53.32 33.136 53.176 33.12C53.032 33.104 52.904 33.096 52.792 33.096V32.52C52.808 32.44 52.816 32.36 52.816 32.28C52.816 32.184 52.816 32.088 52.816 31.992C52.8 31.816 52.8 31.648 52.816 31.488C52.832 31.312 52.832 31.136 52.816 30.96C52.8 30.88 52.792 30.8 52.792 30.72C52.792 30.624 52.792 30.536 52.792 30.456C52.808 30.296 52.8 30.136 52.768 29.976C52.736 29.816 52.736 29.656 52.768 29.496C52.832 29.208 52.856 28.92 52.84 28.632C52.824 28.344 52.808 28.032 52.792 27.696C52.776 27.536 52.768 27.384 52.768 27.24C52.768 27.096 52.768 26.952 52.768 26.808L52.792 25.608C52.792 25.512 52.792 25.384 52.792 25.224C52.792 25.064 52.784 24.904 52.768 24.744C52.768 24.568 52.76 24.408 52.744 24.264C52.744 24.12 52.744 24.016 52.744 23.952C52.712 23.808 52.712 23.648 52.744 23.472C52.76 23.36 52.768 23.24 52.768 23.112C52.784 22.984 52.792 22.856 52.792 22.728C52.824 22.472 52.832 22.176 52.816 21.84C52.816 21.488 52.816 21.176 52.816 20.904C52.816 20.712 52.824 20.536 52.84 20.376C52.856 20.216 52.872 20.112 52.888 20.064C52.872 19.84 52.872 19.664 52.888 19.536C52.904 19.408 52.912 19.304 52.912 19.224H55.456C55.776 19.224 56.104 19.248 56.44 19.296C56.776 19.328 57.112 19.36 57.448 19.392C57.592 19.424 57.696 19.456 57.76 19.488C57.872 19.52 57.968 19.544 58.048 19.56C58.128 19.576 58.2 19.6 58.264 19.632C58.344 19.712 58.448 19.792 58.576 19.872C58.704 19.952 58.824 20.032 58.936 20.112C59.064 20.176 59.176 20.256 59.272 20.352C59.384 20.432 59.456 20.52 59.488 20.616C59.52 20.696 59.56 20.784 59.608 20.88C59.672 20.96 59.72 21.04 59.752 21.12C59.8 21.312 59.832 21.568 59.848 21.888C59.88 22.192 59.88 22.504 59.848 22.824C59.816 23.144 59.752 23.448 59.656 23.736C59.576 24.024 59.456 24.248 59.296 24.408C59.12 24.648 58.936 24.848 58.744 25.008C58.568 25.152 58.408 25.264 58.264 25.344C58.184 25.344 58.112 25.368 58.048 25.416C57.984 25.448 57.92 25.464 57.856 25.464C57.984 25.544 58.088 25.592 58.168 25.608C58.248 25.608 58.352 25.648 58.48 25.728C58.512 25.728 58.568 25.744 58.648 25.776C58.728 25.808 58.784 25.824 58.816 25.824C58.944 25.824 59.072 25.864 59.2 25.944C59.344 26.024 59.52 26.112 59.728 26.208C59.776 26.24 59.84 26.288 59.92 26.352C60.016 26.4 60.112 26.464 60.208 26.544C60.304 26.608 60.392 26.672 60.472 26.736C60.552 26.8 60.608 26.856 60.64 26.904C60.768 27.032 60.832 27.12 60.832 27.168C60.832 27.216 60.888 27.312 61 27.456C61.096 27.584 61.16 27.712 61.192 27.84C61.224 27.968 61.256 28.12 61.288 28.296ZM55.48 31.44C55.544 31.44 55.64 31.432 55.768 31.416C55.912 31.4 56.048 31.384 56.176 31.368C56.32 31.352 56.448 31.344 56.56 31.344C56.672 31.328 56.728 31.32 56.728 31.32C56.84 31.288 56.944 31.264 57.04 31.248C57.152 31.216 57.256 31.184 57.352 31.152C57.608 31.04 57.784 30.904 57.88 30.744C57.992 30.584 58.104 30.384 58.216 30.144C58.296 29.968 58.344 29.776 58.36 29.568C58.392 29.36 58.4 29.168 58.384 28.992C58.384 28.88 58.384 28.776 58.384 28.68C58.384 28.584 58.376 28.48 58.36 28.368C58.36 28.224 58.336 28.056 58.288 27.864C58.256 27.656 58.176 27.504 58.048 27.408C57.936 27.232 57.728 27.096 57.424 27C57.12 26.888 56.864 26.816 56.656 26.784C56.512 26.784 56.376 26.784 56.248 26.784C56.136 26.768 56.04 26.728 55.96 26.664H54.424C54.44 26.696 54.44 26.768 54.424 26.88C54.424 26.992 54.424 27.064 54.424 27.096C54.424 27.464 54.408 27.84 54.376 28.224C54.344 28.592 54.336 28.928 54.352 29.232L54.4 30.336C54.4 30.368 54.4 30.432 54.4 30.528C54.4 30.624 54.4 30.728 54.4 30.84C54.4 30.952 54.4 31.056 54.4 31.152C54.4 31.232 54.4 31.288 54.4 31.32C54.592 31.352 54.776 31.376 54.952 31.392C55.128 31.408 55.304 31.424 55.48 31.44ZM55.168 24.024C55.232 24.024 55.32 23.992 55.432 23.928C55.56 23.848 55.656 23.744 55.72 23.616C55.8 23.488 55.88 23.328 55.96 23.136C56.04 22.944 56.04 22.752 55.96 22.56C55.96 22.352 55.904 22.144 55.792 21.936C55.68 21.728 55.512 21.584 55.288 21.504C55.224 21.504 55.184 21.504 55.168 21.504C55.152 21.488 55.112 21.48 55.048 21.48C54.984 21.512 54.944 21.52 54.928 21.504C54.912 21.488 54.864 21.48 54.784 21.48H54.64C54.64 21.896 54.624 22.32 54.592 22.752C54.56 23.184 54.576 23.608 54.64 24.024H55.168ZM71.5135 33.576L71.3455 33.6C71.2655 33.616 71.2095 33.616 71.1775 33.6C71.1615 33.6 71.0895 33.6 70.9615 33.6C70.9455 33.6 70.8975 33.608 70.8175 33.624C70.7375 33.64 70.6495 33.656 70.5535 33.672C70.4575 33.688 70.3535 33.688 70.2415 33.672C70.1295 33.672 70.0415 33.656 69.9775 33.624C69.8975 33.624 69.8415 33.616 69.8095 33.6C69.7775 33.584 69.7215 33.576 69.6415 33.576C69.5615 33.512 69.5135 33.416 69.4975 33.288C69.4975 33.16 69.4975 33.056 69.4975 32.976V32.376L69.3055 32.64L68.8735 33.048C68.7135 33.16 68.5775 33.248 68.4655 33.312C68.3695 33.392 68.2495 33.472 68.1055 33.552C67.8655 33.696 67.6015 33.792 67.3135 33.84C67.0415 33.888 66.7855 33.912 66.5455 33.912C66.3055 33.912 66.0495 33.864 65.7775 33.768C65.5215 33.672 65.2895 33.584 65.0815 33.504C65.0175 33.488 64.9535 33.456 64.8895 33.408C64.8415 33.376 64.7935 33.344 64.7455 33.312C64.6495 33.232 64.5375 33.152 64.4095 33.072C64.2975 32.992 64.2015 32.912 64.1215 32.832C64.0735 32.8 64.0255 32.768 63.9775 32.736C63.9455 32.688 63.8975 32.648 63.8335 32.616C63.7535 32.568 63.6815 32.488 63.6175 32.376C63.5375 32.2 63.4335 32.032 63.3055 31.872C63.1935 31.696 63.0975 31.496 63.0175 31.272C62.9695 31.096 62.9055 30.928 62.8255 30.768C62.7455 30.608 62.7055 30.456 62.7055 30.312C62.7055 30.232 62.6975 30.096 62.6815 29.904C62.6655 29.712 62.6575 29.576 62.6575 29.496C62.6575 29.352 62.6575 29.24 62.6575 29.16C62.6735 29.08 62.6815 28.96 62.6815 28.8C62.6815 28.72 62.6895 28.64 62.7055 28.56C62.7375 28.464 62.7695 28.344 62.8015 28.2C62.8335 28.024 62.8575 27.84 62.8735 27.648C62.8895 27.44 62.9135 27.272 62.9455 27.144C63.0575 26.936 63.1295 26.808 63.1615 26.76C63.2095 26.712 63.2495 26.624 63.2815 26.496C63.3135 26.4 63.3535 26.28 63.4015 26.136C63.4655 25.976 63.5535 25.856 63.6655 25.776C63.7135 25.744 63.7855 25.688 63.8815 25.608C63.9775 25.528 64.0735 25.44 64.1695 25.344C64.2815 25.248 64.3775 25.168 64.4575 25.104C64.5375 25.024 64.5935 24.984 64.6255 24.984L65.0575 24.792C65.1855 24.744 65.3295 24.712 65.4895 24.696C65.6495 24.664 65.8015 24.648 65.9455 24.648L66.6895 24.624C66.7695 24.624 66.8575 24.624 66.9535 24.624C67.0655 24.624 67.1375 24.632 67.1695 24.648C67.2495 24.648 67.3295 24.672 67.4095 24.72C67.4895 24.768 67.5695 24.792 67.6495 24.792C67.7295 24.792 67.8255 24.824 67.9375 24.888C68.0655 24.936 68.1695 25 68.2495 25.08C68.4095 25.144 68.5295 25.224 68.6095 25.32C68.7055 25.4 68.7935 25.48 68.8735 25.56C68.9535 25.64 69.0255 25.72 69.0895 25.8C69.1695 25.864 69.2495 25.936 69.3295 26.016C69.3295 26.064 69.3615 26.104 69.4255 26.136C69.4575 26.152 69.4815 26.168 69.4975 26.184C69.5295 26.152 69.5455 26.088 69.5455 25.992C69.5615 25.896 69.5935 25.808 69.6415 25.728C69.6575 25.504 69.6655 25.304 69.6655 25.128C69.6815 24.936 69.6975 24.808 69.7135 24.744C69.6975 24.68 69.7055 24.592 69.7375 24.48C69.7695 24.352 69.8255 24.304 69.9055 24.336C69.9375 24.32 70.0095 24.32 70.1215 24.336C70.2335 24.352 70.3615 24.376 70.5055 24.408C70.6495 24.424 70.7935 24.44 70.9375 24.456C71.0975 24.472 71.2335 24.48 71.3455 24.48C71.3615 24.48 71.3695 24.52 71.3695 24.6C71.3695 24.68 71.3615 24.744 71.3455 24.792L71.4895 27.096V29.688C71.4895 29.736 71.4815 29.784 71.4655 29.832C71.4655 29.88 71.4655 29.928 71.4655 29.976C71.4815 30.12 71.4895 30.272 71.4895 30.432C71.4895 30.576 71.4895 30.728 71.4895 30.888C71.5055 31 71.5055 31.12 71.4895 31.248C71.4895 31.36 71.4895 31.48 71.4895 31.608C71.4895 31.704 71.4895 31.84 71.4895 32.016C71.5055 32.176 71.5135 32.344 71.5135 32.52C71.5135 32.696 71.5135 32.864 71.5135 33.024C71.5135 33.2 71.5135 33.344 71.5135 33.456V33.576ZM68.4175 29.952V29.88C68.4175 29.784 68.4335 29.576 68.4655 29.256C68.4975 28.92 68.4255 28.512 68.2495 28.032C68.2015 27.904 68.1295 27.768 68.0335 27.624C67.9375 27.48 67.7855 27.368 67.5775 27.288C67.4655 27.256 67.3615 27.224 67.2655 27.192C67.1695 27.144 67.0655 27.128 66.9535 27.144C66.8415 27.176 66.6975 27.248 66.5215 27.36C66.3615 27.472 66.2255 27.608 66.1135 27.768C66.0335 27.848 65.9855 27.936 65.9695 28.032C65.9535 28.128 65.9375 28.24 65.9215 28.368C65.8735 28.576 65.8335 28.736 65.8015 28.848C65.7855 28.96 65.7775 29.104 65.7775 29.28C65.7775 29.6 65.8655 29.88 66.0415 30.12C66.2335 30.36 66.3535 30.52 66.4015 30.6C66.4495 30.648 66.4895 30.68 66.5215 30.696C66.5695 30.696 66.6335 30.736 66.7135 30.816C66.8735 30.896 67.0255 30.912 67.1695 30.864C67.3135 30.8 67.4735 30.728 67.6495 30.648H67.7935C67.9375 30.568 68.0575 30.488 68.1535 30.408C68.2495 30.328 68.3375 30.208 68.4175 30.048V29.952ZM83.137 33.288C83.137 33.304 83.121 33.336 83.089 33.384C83.057 33.432 83.025 33.456 82.993 33.456C82.961 33.456 82.873 33.456 82.729 33.456C82.601 33.456 82.457 33.456 82.297 33.456C82.137 33.456 81.985 33.456 81.841 33.456C81.697 33.456 81.609 33.456 81.577 33.456C81.545 33.44 81.449 33.424 81.289 33.408C81.145 33.408 80.977 33.4 80.785 33.384C80.609 33.368 80.433 33.36 80.257 33.36C80.097 33.36 79.985 33.368 79.921 33.384C79.873 33.4 79.817 33.416 79.753 33.432C79.689 33.448 79.625 33.456 79.561 33.456C79.385 33.456 79.169 33.456 78.913 33.456C78.657 33.472 78.473 33.488 78.361 33.504C78.217 33.536 78.073 33.544 77.929 33.528C77.801 33.528 77.665 33.528 77.521 33.528L76.177 33.576H73.393C73.361 33.496 73.353 33.424 73.369 33.36C73.385 33.312 73.393 33.24 73.393 33.144V31.44L73.561 31.272C73.801 31.112 74.033 30.92 74.257 30.696C74.497 30.472 74.777 30.2 75.097 29.88C75.257 29.8 75.393 29.704 75.505 29.592C75.633 29.48 75.769 29.384 75.913 29.304C76.153 29.08 76.377 28.848 76.585 28.608C76.809 28.352 77.033 28.104 77.257 27.864C77.337 27.8 77.441 27.704 77.569 27.576C77.697 27.448 77.801 27.344 77.881 27.264C78.025 27.168 78.185 27.048 78.361 26.904C78.537 26.76 78.641 26.648 78.673 26.568C78.705 26.536 78.761 26.48 78.841 26.4C78.921 26.32 78.953 26.272 78.937 26.256C78.905 26.224 78.881 26.208 78.865 26.208C78.849 26.192 78.801 26.184 78.721 26.184C78.545 26.184 78.313 26.192 78.025 26.208C77.753 26.208 77.561 26.216 77.449 26.232C77.305 26.264 77.161 26.288 77.017 26.304C76.889 26.304 76.753 26.312 76.609 26.328H75.769C75.561 26.344 75.353 26.368 75.145 26.4C74.937 26.432 74.745 26.432 74.569 26.4C74.537 26.384 74.497 26.376 74.449 26.376C74.401 26.376 74.361 26.36 74.329 26.328C74.297 26.28 74.281 26.24 74.281 26.208C74.297 26.16 74.305 26.12 74.305 26.088C74.305 25.992 74.305 25.888 74.305 25.776C74.321 25.664 74.329 25.48 74.329 25.224C74.329 25.128 74.321 25.04 74.305 24.96C74.305 24.88 74.313 24.824 74.329 24.792C74.409 24.792 74.473 24.792 74.521 24.792C74.585 24.792 74.657 24.8 74.737 24.816H74.929C75.153 24.816 75.425 24.8 75.745 24.768C76.081 24.72 76.361 24.696 76.585 24.696C76.713 24.696 76.809 24.704 76.873 24.72C76.937 24.736 77.033 24.744 77.161 24.744C77.337 24.744 77.473 24.744 77.569 24.744C77.681 24.728 77.825 24.712 78.001 24.696C78.033 24.696 78.065 24.696 78.097 24.696C78.129 24.68 78.177 24.672 78.241 24.672C78.433 24.656 78.609 24.656 78.769 24.672C78.945 24.672 79.097 24.664 79.225 24.648C79.385 24.632 79.569 24.64 79.777 24.672C80.001 24.688 80.185 24.696 80.329 24.696C80.825 24.696 81.265 24.696 81.649 24.696C82.033 24.696 82.265 24.728 82.345 24.792V27.216C82.265 27.344 82.185 27.456 82.105 27.552C82.041 27.632 81.961 27.72 81.865 27.816C81.785 27.896 81.689 27.984 81.577 28.08C81.481 28.176 81.353 28.288 81.193 28.416C80.905 28.672 80.689 28.848 80.545 28.944C80.401 29.024 80.249 29.12 80.089 29.232C79.689 29.6 79.313 29.928 78.961 30.216C78.625 30.504 78.265 30.808 77.881 31.128C77.721 31.208 77.593 31.288 77.497 31.368C77.417 31.448 77.337 31.528 77.257 31.608C77.177 31.672 77.105 31.72 77.041 31.752C76.977 31.768 76.945 31.816 76.945 31.896H77.113C77.289 31.88 77.593 31.872 78.025 31.872C78.457 31.856 78.905 31.848 79.369 31.848C79.689 31.848 79.985 31.864 80.257 31.896C80.529 31.912 80.753 31.92 80.929 31.92L82.657 31.896C82.753 31.896 82.841 31.896 82.921 31.896C83.017 31.896 83.089 31.904 83.137 31.92C83.137 31.968 83.137 32.016 83.137 32.064C83.153 32.112 83.153 32.152 83.137 32.184C83.105 32.296 83.089 32.4 83.089 32.496C83.105 32.576 83.113 32.672 83.113 32.784C83.113 32.816 83.113 32.88 83.113 32.976C83.113 33.056 83.121 33.16 83.137 33.288ZM94.387 33.288C94.387 33.304 94.371 33.336 94.339 33.384C94.307 33.432 94.275 33.456 94.243 33.456C94.211 33.456 94.123 33.456 93.979 33.456C93.851 33.456 93.707 33.456 93.547 33.456C93.387 33.456 93.235 33.456 93.091 33.456C92.947 33.456 92.859 33.456 92.827 33.456C92.795 33.44 92.699 33.424 92.539 33.408C92.395 33.408 92.227 33.4 92.035 33.384C91.859 33.368 91.683 33.36 91.507 33.36C91.347 33.36 91.235 33.368 91.171 33.384C91.123 33.4 91.067 33.416 91.003 33.432C90.939 33.448 90.875 33.456 90.811 33.456C90.635 33.456 90.419 33.456 90.163 33.456C89.907 33.472 89.723 33.488 89.611 33.504C89.467 33.536 89.323 33.544 89.179 33.528C89.051 33.528 88.915 33.528 88.771 33.528L87.427 33.576H84.643C84.611 33.496 84.603 33.424 84.619 33.36C84.635 33.312 84.643 33.24 84.643 33.144V31.44L84.811 31.272C85.051 31.112 85.283 30.92 85.507 30.696C85.747 30.472 86.027 30.2 86.347 29.88C86.507 29.8 86.643 29.704 86.755 29.592C86.883 29.48 87.019 29.384 87.163 29.304C87.403 29.08 87.627 28.848 87.835 28.608C88.059 28.352 88.283 28.104 88.507 27.864C88.587 27.8 88.691 27.704 88.819 27.576C88.947 27.448 89.051 27.344 89.131 27.264C89.275 27.168 89.435 27.048 89.611 26.904C89.787 26.76 89.891 26.648 89.923 26.568C89.955 26.536 90.011 26.48 90.091 26.4C90.171 26.32 90.203 26.272 90.187 26.256C90.155 26.224 90.131 26.208 90.115 26.208C90.099 26.192 90.051 26.184 89.971 26.184C89.795 26.184 89.563 26.192 89.275 26.208C89.003 26.208 88.811 26.216 88.699 26.232C88.555 26.264 88.411 26.288 88.267 26.304C88.139 26.304 88.003 26.312 87.859 26.328H87.019C86.811 26.344 86.603 26.368 86.395 26.4C86.187 26.432 85.995 26.432 85.819 26.4C85.787 26.384 85.747 26.376 85.699 26.376C85.651 26.376 85.611 26.36 85.579 26.328C85.547 26.28 85.531 26.24 85.531 26.208C85.547 26.16 85.555 26.12 85.555 26.088C85.555 25.992 85.555 25.888 85.555 25.776C85.571 25.664 85.579 25.48 85.579 25.224C85.579 25.128 85.571 25.04 85.555 24.96C85.555 24.88 85.563 24.824 85.579 24.792C85.659 24.792 85.723 24.792 85.771 24.792C85.835 24.792 85.907 24.8 85.987 24.816H86.179C86.403 24.816 86.675 24.8 86.995 24.768C87.331 24.72 87.611 24.696 87.835 24.696C87.963 24.696 88.059 24.704 88.123 24.72C88.187 24.736 88.283 24.744 88.411 24.744C88.587 24.744 88.723 24.744 88.819 24.744C88.931 24.728 89.075 24.712 89.251 24.696C89.283 24.696 89.315 24.696 89.347 24.696C89.379 24.68 89.427 24.672 89.491 24.672C89.683 24.656 89.859 24.656 90.019 24.672C90.195 24.672 90.347 24.664 90.475 24.648C90.635 24.632 90.819 24.64 91.027 24.672C91.251 24.688 91.435 24.696 91.579 24.696C92.075 24.696 92.515 24.696 92.899 24.696C93.283 24.696 93.515 24.728 93.595 24.792V27.216C93.515 27.344 93.435 27.456 93.355 27.552C93.291 27.632 93.211 27.72 93.115 27.816C93.035 27.896 92.939 27.984 92.827 28.08C92.731 28.176 92.603 28.288 92.443 28.416C92.155 28.672 91.939 28.848 91.795 28.944C91.651 29.024 91.499 29.12 91.339 29.232C90.939 29.6 90.563 29.928 90.211 30.216C89.875 30.504 89.515 30.808 89.131 31.128C88.971 31.208 88.843 31.288 88.747 31.368C88.667 31.448 88.587 31.528 88.507 31.608C88.427 31.672 88.355 31.72 88.291 31.752C88.227 31.768 88.195 31.816 88.195 31.896H88.363C88.539 31.88 88.843 31.872 89.275 31.872C89.707 31.856 90.155 31.848 90.619 31.848C90.939 31.848 91.235 31.864 91.507 31.896C91.779 31.912 92.003 31.92 92.179 31.92L93.907 31.896C94.003 31.896 94.091 31.896 94.171 31.896C94.267 31.896 94.339 31.904 94.387 31.92C94.387 31.968 94.387 32.016 94.387 32.064C94.403 32.112 94.403 32.152 94.387 32.184C94.355 32.296 94.339 32.4 94.339 32.496C94.355 32.576 94.363 32.672 94.363 32.784C94.363 32.816 94.363 32.88 94.363 32.976C94.363 33.056 94.371 33.16 94.387 33.288ZM104.701 33.576L104.533 33.6C104.453 33.616 104.397 33.616 104.365 33.6C104.349 33.6 104.277 33.6 104.149 33.6C104.133 33.6 104.085 33.608 104.005 33.624C103.925 33.64 103.837 33.656 103.741 33.672C103.645 33.688 103.541 33.688 103.429 33.672C103.317 33.672 103.229 33.656 103.165 33.624C103.085 33.624 103.029 33.616 102.997 33.6C102.965 33.584 102.909 33.576 102.829 33.576C102.749 33.512 102.701 33.416 102.685 33.288C102.685 33.16 102.685 33.056 102.685 32.976V32.376L102.493 32.64L102.061 33.048C101.901 33.16 101.765 33.248 101.653 33.312C101.557 33.392 101.437 33.472 101.293 33.552C101.053 33.696 100.789 33.792 100.501 33.84C100.229 33.888 99.973 33.912 99.733 33.912C99.493 33.912 99.237 33.864 98.965 33.768C98.709 33.672 98.477 33.584 98.269 33.504C98.205 33.488 98.141 33.456 98.077 33.408C98.029 33.376 97.981 33.344 97.933 33.312C97.837 33.232 97.725 33.152 97.597 33.072C97.485 32.992 97.389 32.912 97.309 32.832C97.261 32.8 97.213 32.768 97.165 32.736C97.133 32.688 97.085 32.648 97.021 32.616C96.941 32.568 96.869 32.488 96.805 32.376C96.725 32.2 96.621 32.032 96.493 31.872C96.381 31.696 96.285 31.496 96.205 31.272C96.157 31.096 96.093 30.928 96.013 30.768C95.933 30.608 95.893 30.456 95.893 30.312C95.893 30.232 95.885 30.096 95.869 29.904C95.853 29.712 95.845 29.576 95.845 29.496C95.845 29.352 95.845 29.24 95.845 29.16C95.861 29.08 95.869 28.96 95.869 28.8C95.869 28.72 95.877 28.64 95.893 28.56C95.925 28.464 95.957 28.344 95.989 28.2C96.021 28.024 96.045 27.84 96.061 27.648C96.077 27.44 96.101 27.272 96.133 27.144C96.245 26.936 96.317 26.808 96.349 26.76C96.397 26.712 96.437 26.624 96.469 26.496C96.501 26.4 96.541 26.28 96.589 26.136C96.653 25.976 96.741 25.856 96.853 25.776C96.901 25.744 96.973 25.688 97.069 25.608C97.165 25.528 97.261 25.44 97.357 25.344C97.469 25.248 97.565 25.168 97.645 25.104C97.725 25.024 97.781 24.984 97.813 24.984L98.245 24.792C98.373 24.744 98.517 24.712 98.677 24.696C98.837 24.664 98.989 24.648 99.133 24.648L99.877 24.624C99.957 24.624 100.045 24.624 100.141 24.624C100.253 24.624 100.325 24.632 100.357 24.648C100.437 24.648 100.517 24.672 100.597 24.72C100.677 24.768 100.757 24.792 100.837 24.792C100.917 24.792 101.013 24.824 101.125 24.888C101.253 24.936 101.357 25 101.437 25.08C101.597 25.144 101.717 25.224 101.797 25.32C101.893 25.4 101.981 25.48 102.061 25.56C102.141 25.64 102.213 25.72 102.277 25.8C102.357 25.864 102.437 25.936 102.517 26.016C102.517 26.064 102.549 26.104 102.613 26.136C102.645 26.152 102.669 26.168 102.685 26.184C102.717 26.152 102.733 26.088 102.733 25.992C102.749 25.896 102.781 25.808 102.829 25.728C102.845 25.504 102.853 25.304 102.853 25.128C102.869 24.936 102.885 24.808 102.901 24.744C102.885 24.68 102.893 24.592 102.925 24.48C102.957 24.352 103.013 24.304 103.093 24.336C103.125 24.32 103.197 24.32 103.309 24.336C103.421 24.352 103.549 24.376 103.693 24.408C103.837 24.424 103.981 24.44 104.125 24.456C104.285 24.472 104.421 24.48 104.533 24.48C104.549 24.48 104.557 24.52 104.557 24.6C104.557 24.68 104.549 24.744 104.533 24.792L104.677 27.096V29.688C104.677 29.736 104.669 29.784 104.653 29.832C104.653 29.88 104.653 29.928 104.653 29.976C104.669 30.12 104.677 30.272 104.677 30.432C104.677 30.576 104.677 30.728 104.677 30.888C104.693 31 104.693 31.12 104.677 31.248C104.677 31.36 104.677 31.48 104.677 31.608C104.677 31.704 104.677 31.84 104.677 32.016C104.693 32.176 104.701 32.344 104.701 32.52C104.701 32.696 104.701 32.864 104.701 33.024C104.701 33.2 104.701 33.344 104.701 33.456V33.576ZM101.605 29.952V29.88C101.605 29.784 101.621 29.576 101.653 29.256C101.685 28.92 101.613 28.512 101.437 28.032C101.389 27.904 101.317 27.768 101.221 27.624C101.125 27.48 100.973 27.368 100.765 27.288C100.653 27.256 100.549 27.224 100.453 27.192C100.357 27.144 100.253 27.128 100.141 27.144C100.029 27.176 99.885 27.248 99.709 27.36C99.549 27.472 99.413 27.608 99.301 27.768C99.221 27.848 99.173 27.936 99.157 28.032C99.141 28.128 99.125 28.24 99.109 28.368C99.061 28.576 99.021 28.736 98.989 28.848C98.973 28.96 98.965 29.104 98.965 29.28C98.965 29.6 99.053 29.88 99.229 30.12C99.421 30.36 99.541 30.52 99.589 30.6C99.637 30.648 99.677 30.68 99.709 30.696C99.757 30.696 99.821 30.736 99.901 30.816C100.061 30.896 100.213 30.912 100.357 30.864C100.501 30.8 100.661 30.728 100.837 30.648H100.981C101.125 30.568 101.245 30.488 101.341 30.408C101.437 30.328 101.525 30.208 101.605 30.048V29.952ZM106.701 29.928C106.701 29.816 106.701 29.648 106.701 29.424C106.717 29.2 106.717 28.984 106.701 28.776C106.717 28.632 106.725 28.488 106.725 28.344C106.725 28.2 106.725 28.048 106.725 27.888L106.653 25.944V24.864C106.829 24.864 107.013 24.864 107.205 24.864C107.397 24.848 107.613 24.856 107.853 24.888C107.917 24.904 107.981 24.912 108.045 24.912H108.381C108.493 24.944 108.549 24.96 108.549 24.96C108.549 24.944 108.573 24.952 108.621 24.984C108.621 25.064 108.613 25.128 108.597 25.176C108.581 25.208 108.573 25.264 108.573 25.344V26.112C108.637 26.032 108.677 25.968 108.693 25.92C108.725 25.856 108.781 25.784 108.861 25.704L109.005 25.656C109.213 25.448 109.469 25.312 109.773 25.248C110.077 25.184 110.381 25.168 110.685 25.2C110.749 25.2 110.853 25.232 110.997 25.296C111.141 25.344 111.285 25.408 111.429 25.488C111.541 25.504 111.637 25.536 111.717 25.584L111.789 25.656C111.949 25.8 112.101 25.928 112.245 26.04C112.389 26.136 112.493 26.264 112.557 26.424C112.717 26.648 112.845 26.888 112.941 27.144C113.037 27.4 113.125 27.68 113.205 27.984C113.205 28.064 113.197 28.136 113.181 28.2C113.165 28.264 113.117 28.296 113.037 28.296C112.797 28.376 112.573 28.416 112.365 28.416C112.173 28.4 111.909 28.408 111.573 28.44H111.309C111.277 28.424 111.253 28.4 111.237 28.368C111.237 28.336 111.237 28.312 111.237 28.296C111.221 28.2 111.197 28.12 111.165 28.056C111.149 27.976 111.141 27.912 111.141 27.864C111.141 27.832 111.133 27.792 111.117 27.744C111.101 27.696 111.085 27.656 111.069 27.624C111.037 27.576 111.013 27.536 110.997 27.504C110.693 27.2 110.397 27.048 110.109 27.048C110.077 27.048 110.029 27.048 109.965 27.048C109.917 27.048 109.869 27.064 109.821 27.096C109.741 27.128 109.621 27.184 109.461 27.264C109.317 27.328 109.221 27.384 109.173 27.432C109.093 27.512 109.005 27.6 108.909 27.696C108.829 27.776 108.765 27.872 108.717 27.984C108.701 28.048 108.685 28.16 108.669 28.32C108.669 28.464 108.669 28.552 108.669 28.584C108.637 28.728 108.605 28.92 108.573 29.16C108.541 29.4 108.525 29.608 108.525 29.784C108.525 29.896 108.509 30.04 108.477 30.216C108.461 30.392 108.453 30.552 108.453 30.696C108.453 30.808 108.445 30.912 108.429 31.008C108.429 31.104 108.429 31.2 108.429 31.296V32.208C108.429 32.304 108.421 32.408 108.405 32.52C108.405 32.632 108.405 32.744 108.405 32.856V33.384C107.605 33.56 107.053 33.56 106.749 33.384C106.717 33.272 106.693 33.136 106.677 32.976C106.661 32.8 106.661 32.696 106.677 32.664C106.709 32.376 106.717 32.088 106.701 31.8C106.685 31.512 106.677 31.216 106.677 30.912C106.661 30.752 106.661 30.584 106.677 30.408C106.693 30.232 106.701 30.072 106.701 29.928ZM130.435 30.408C130.403 30.488 130.363 30.592 130.315 30.72C130.267 30.832 130.211 30.952 130.147 31.08C130.099 31.208 130.051 31.336 130.003 31.464C129.955 31.592 129.923 31.688 129.907 31.752C129.779 32.216 129.683 32.536 129.619 32.712C129.571 32.872 129.507 33.016 129.427 33.144C129.411 33.176 129.371 33.248 129.307 33.36C129.243 33.472 129.195 33.544 129.163 33.576C129.083 33.592 129.043 33.592 129.043 33.576C129.059 33.576 129.003 33.576 128.875 33.576C128.795 33.576 128.691 33.592 128.563 33.624C128.451 33.656 128.315 33.672 128.155 33.672C128.091 33.672 127.995 33.664 127.867 33.648C127.755 33.632 127.635 33.624 127.507 33.624C127.443 33.624 127.403 33.616 127.387 33.6C127.371 33.584 127.331 33.576 127.267 33.576C127.187 33.56 127.083 33.552 126.955 33.552C126.843 33.552 126.747 33.552 126.667 33.552C126.539 33.552 126.427 33.544 126.331 33.528C126.251 33.528 126.147 33.528 126.019 33.528C125.939 33.464 125.883 33.392 125.851 33.312C125.835 33.248 125.795 33.176 125.731 33.096C125.667 32.808 125.587 32.552 125.491 32.328C125.411 32.088 125.315 31.848 125.203 31.608C125.123 31.48 125.059 31.36 125.011 31.248C124.963 31.12 124.939 31.024 124.939 30.96C124.939 30.976 124.907 30.928 124.843 30.816C124.795 30.704 124.755 30.608 124.723 30.528C124.643 30.336 124.539 30.032 124.411 29.616C124.283 29.2 124.139 28.832 123.979 28.512C123.867 28.24 123.747 27.936 123.619 27.6C123.507 27.264 123.387 26.96 123.259 26.688L122.635 24.888C122.587 24.776 122.531 24.688 122.467 24.624C122.419 24.544 122.379 24.448 122.347 24.336C122.315 24.24 122.275 24.144 122.227 24.048C122.195 23.936 122.179 23.84 122.179 23.76C122.115 23.696 122.075 23.608 122.059 23.496C122.043 23.368 122.003 23.272 121.939 23.208C121.875 22.936 121.811 22.696 121.747 22.488C121.683 22.264 121.611 22.056 121.531 21.864C121.467 21.656 121.403 21.488 121.339 21.36C121.275 21.216 121.211 21.056 121.147 20.88C121.147 20.848 121.147 20.808 121.147 20.76C121.147 20.712 121.187 20.672 121.267 20.64C121.395 20.576 121.507 20.512 121.603 20.448C121.699 20.384 121.811 20.312 121.939 20.232C122.067 20.168 122.219 20.096 122.395 20.016C122.587 19.936 122.747 19.824 122.875 19.68C122.955 19.6 123.043 19.544 123.139 19.512C123.235 19.48 123.323 19.448 123.403 19.416C123.483 19.368 123.523 19.344 123.523 19.344C123.523 19.328 123.563 19.32 123.643 19.32L123.715 19.416L124.099 20.112C124.147 20.192 124.203 20.344 124.267 20.568C124.347 20.776 124.419 20.968 124.483 21.144L124.939 22.416C124.955 22.448 124.995 22.56 125.059 22.752C125.139 22.944 125.227 23.192 125.323 23.496L125.539 24.36L125.827 25.008C125.891 25.136 125.939 25.28 125.971 25.44C126.003 25.6 126.043 25.744 126.091 25.872C126.171 26.048 126.219 26.2 126.235 26.328C126.251 26.456 126.267 26.552 126.283 26.616C126.475 27.208 126.675 27.8 126.883 28.392C127.107 28.968 127.403 29.544 127.771 30.12C127.771 30.056 127.795 30.016 127.843 30C127.891 29.984 127.915 29.944 127.915 29.88C127.979 29.592 128.091 29.336 128.251 29.112C128.411 28.872 128.531 28.576 128.611 28.224C128.627 28.176 128.643 28.096 128.659 27.984C128.675 27.872 128.699 27.792 128.731 27.744C128.827 27.568 128.891 27.368 128.923 27.144C128.955 26.92 129.059 26.688 129.235 26.448L129.499 25.728C129.595 25.488 129.675 25.288 129.739 25.128C129.803 24.968 129.859 24.8 129.907 24.624C129.987 24.496 130.043 24.344 130.075 24.168C130.123 23.992 130.171 23.816 130.219 23.64C130.251 23.496 130.291 23.36 130.339 23.232C130.403 23.088 130.451 22.952 130.483 22.824C130.515 22.712 130.547 22.624 130.579 22.56C130.627 22.48 130.667 22.384 130.699 22.272C130.731 22.176 130.771 22.08 130.819 21.984C130.883 21.872 130.923 21.776 130.939 21.696L131.227 20.88C131.275 20.8 131.299 20.696 131.299 20.568C131.315 20.424 131.355 20.312 131.419 20.232C131.499 20.104 131.547 20 131.563 19.92C131.579 19.824 131.619 19.696 131.683 19.536C131.683 19.504 131.707 19.472 131.755 19.44C131.771 19.424 131.795 19.416 131.827 19.416H132.115C132.323 19.544 132.483 19.624 132.595 19.656C132.723 19.688 132.899 19.768 133.123 19.896C133.267 19.944 133.435 20.016 133.627 20.112C133.835 20.208 134.003 20.296 134.131 20.376L134.395 20.64C134.395 20.704 134.371 20.768 134.323 20.832C134.291 20.896 134.275 20.968 134.275 21.048C134.195 21.192 134.123 21.336 134.059 21.48C134.011 21.608 133.947 21.776 133.867 21.984L133.651 22.584C133.603 22.856 133.499 23.12 133.339 23.376C133.179 23.616 133.083 23.792 133.051 23.904C132.987 24.144 132.891 24.376 132.763 24.6C132.635 24.808 132.507 25.056 132.379 25.344C132.299 25.504 132.227 25.704 132.163 25.944C132.115 26.168 132.059 26.344 131.995 26.472C131.915 26.6 131.859 26.728 131.827 26.856C131.811 26.968 131.763 27.072 131.683 27.168C131.651 27.216 131.619 27.32 131.587 27.48C131.555 27.624 131.523 27.736 131.491 27.816C131.475 27.848 131.435 27.928 131.371 28.056C131.323 28.168 131.275 28.304 131.227 28.464C131.163 28.656 131.107 28.816 131.059 28.944C131.011 29.072 130.979 29.152 130.963 29.184L130.435 30.408ZM137.929 30.912C137.961 31.232 137.969 31.52 137.953 31.776C137.937 32.032 137.913 32.272 137.881 32.496C137.881 32.592 137.857 32.664 137.809 32.712C137.649 32.744 137.465 32.776 137.257 32.808C137.049 32.824 136.857 32.824 136.681 32.808C136.537 32.792 136.393 32.8 136.249 32.832C136.105 32.848 136.001 32.856 135.937 32.856C135.937 32.76 135.929 32.672 135.913 32.592C135.897 32.512 135.897 32.4 135.913 32.256C135.929 32.128 135.929 31.992 135.913 31.848C135.913 31.704 135.913 31.568 135.913 31.44V30.264C135.897 29.896 135.889 29.52 135.889 29.136C135.889 28.752 135.881 28.496 135.865 28.368C135.849 28.224 135.849 28.08 135.865 27.936C135.897 27.792 135.913 27.648 135.913 27.504C135.897 27.28 135.889 27.056 135.889 26.832C135.905 26.592 135.913 26.36 135.913 26.136C135.913 25.944 135.905 25.696 135.889 25.392C135.873 25.072 135.881 24.816 135.913 24.624C136.041 24.592 136.201 24.576 136.393 24.576C136.585 24.576 136.793 24.568 137.017 24.552C137.193 24.536 137.369 24.528 137.545 24.528C137.721 24.528 137.849 24.528 137.929 24.528C137.961 24.528 137.969 24.576 137.953 24.672C137.953 24.752 137.953 24.808 137.953 24.84C137.937 25.24 137.937 25.592 137.953 25.896C137.969 26.184 137.961 26.488 137.929 26.808C137.945 27.128 137.945 27.408 137.929 27.648C137.929 27.872 137.913 28.144 137.881 28.464C137.881 28.512 137.881 28.64 137.881 28.848C137.881 29.056 137.889 29.296 137.905 29.568C137.921 29.824 137.929 30.08 137.929 30.336C137.929 30.576 137.929 30.768 137.929 30.912ZM135.889 22.992C135.873 22.912 135.865 22.792 135.865 22.632C135.881 22.472 135.889 22.304 135.889 22.128C135.889 22.048 135.881 21.976 135.865 21.912C135.865 21.848 135.865 21.784 135.865 21.72C135.865 21.688 135.865 21.664 135.865 21.648C135.881 21.632 135.889 21.608 135.889 21.576H137.617C137.697 21.576 137.745 21.584 137.761 21.6C137.777 21.6 137.785 21.64 137.785 21.72V23.28C137.689 23.296 137.537 23.304 137.329 23.304C137.137 23.304 136.937 23.304 136.729 23.304C136.521 23.304 136.329 23.304 136.153 23.304C135.993 23.288 135.913 23.264 135.913 23.232C135.897 23.184 135.889 23.104 135.889 22.992ZM144.708 31.008C144.788 31.088 144.924 31.152 145.116 31.2C145.308 31.248 145.484 31.232 145.644 31.152C145.836 30.96 145.988 30.704 146.1 30.384C146.132 30.224 146.14 30.072 146.124 29.928C146.124 29.768 146.116 29.616 146.1 29.472C146.148 29.184 146.124 28.968 146.028 28.824C145.932 28.664 145.804 28.464 145.644 28.224C145.484 28.144 145.356 28.104 145.26 28.104C145.164 28.104 145.036 28.144 144.876 28.224C144.844 28.256 144.764 28.344 144.636 28.488C144.524 28.616 144.42 28.768 144.324 28.944C144.276 29.056 144.252 29.176 144.252 29.304C144.252 29.432 144.252 29.536 144.252 29.616C144.252 29.648 144.236 29.728 144.204 29.856C144.188 29.984 144.212 30.128 144.276 30.288C144.324 30.432 144.396 30.584 144.492 30.744C144.604 30.888 144.676 30.976 144.708 31.008ZM141.372 33.912C141.244 33.912 141.108 33.92 140.964 33.936C140.836 33.952 140.7 33.952 140.556 33.936V32.232C140.556 31.992 140.532 31.808 140.484 31.68C140.436 31.536 140.42 31.352 140.436 31.128C140.468 30.84 140.476 30.544 140.46 30.24C140.46 29.936 140.452 29.632 140.436 29.328L140.388 28.56C140.388 28.288 140.38 28.008 140.364 27.72C140.348 27.432 140.34 27.144 140.34 26.856C140.34 26.712 140.34 26.568 140.34 26.424C140.356 26.264 140.348 26.112 140.316 25.968C140.316 25.808 140.324 25.648 140.34 25.488C140.356 25.328 140.34 25.176 140.292 25.032C140.292 24.968 140.292 24.856 140.292 24.696C140.292 24.536 140.292 24.36 140.292 24.168C140.308 23.96 140.316 23.752 140.316 23.544C140.332 23.336 140.348 23.152 140.364 22.992L140.388 20.496C140.452 20.032 140.484 19.536 140.484 19.008C140.5 18.48 140.508 17.944 140.508 17.4C140.684 17.352 140.891 17.328 141.132 17.328C141.388 17.328 141.636 17.352 141.876 17.4C141.94 17.416 141.996 17.424 142.044 17.424C142.108 17.408 142.172 17.408 142.236 17.424C142.252 17.424 142.276 17.432 142.308 17.448C142.372 17.48 142.404 17.528 142.404 17.592C142.436 17.912 142.436 18.232 142.404 18.552C142.388 18.856 142.396 19.168 142.428 19.488C142.444 19.76 142.444 20.016 142.428 20.256C142.428 20.496 142.428 20.76 142.428 21.048C142.412 21.32 142.412 21.536 142.428 21.696C142.444 21.856 142.444 22.072 142.428 22.344L142.404 22.92V23.856C142.404 23.984 142.404 24.216 142.404 24.552C142.42 24.872 142.428 25.192 142.428 25.512C142.428 25.848 142.428 26.144 142.428 26.4C142.428 26.656 142.42 26.848 142.404 26.976C142.484 26.896 142.532 26.832 142.548 26.784C142.58 26.72 142.628 26.688 142.692 26.688C142.852 26.528 143.012 26.352 143.172 26.16C143.348 25.968 143.548 25.832 143.772 25.752C143.948 25.672 144.084 25.632 144.18 25.632C144.276 25.616 144.396 25.608 144.54 25.608C144.86 25.528 145.196 25.488 145.548 25.488C145.916 25.488 146.252 25.528 146.556 25.608C147.612 26.024 148.284 26.688 148.572 27.6C148.652 27.76 148.724 27.92 148.788 28.08C148.852 28.224 148.884 28.376 148.884 28.536C148.964 28.84 149.012 29.12 149.028 29.376C149.044 29.632 149.052 29.92 149.052 30.24C149.052 30.416 149.044 30.6 149.028 30.792C149.012 30.968 148.98 31.136 148.932 31.296C148.9 31.408 148.852 31.544 148.788 31.704C148.724 31.864 148.676 31.992 148.644 32.088C148.516 32.424 148.372 32.704 148.212 32.928C148.052 33.136 147.812 33.368 147.492 33.624C147.412 33.704 147.332 33.776 147.252 33.84C147.188 33.904 147.116 33.936 147.036 33.936C146.876 34.096 146.692 34.216 146.484 34.296C146.292 34.376 146.116 34.416 145.956 34.416H145.332C145.076 34.368 144.836 34.312 144.612 34.248C144.388 34.184 144.164 34.072 143.94 33.912C143.908 33.896 143.828 33.848 143.7 33.768C143.588 33.704 143.468 33.624 143.34 33.528C143.212 33.432 143.084 33.32 142.956 33.192C142.828 33.08 142.74 32.968 142.692 32.856C142.692 32.824 142.668 32.8 142.62 32.784C142.588 32.752 142.556 32.72 142.524 32.688C142.508 32.848 142.492 33.04 142.476 33.264C142.476 33.488 142.476 33.712 142.476 33.936L141.372 33.912ZM157.893 28.392C157.893 28.472 157.853 28.552 157.773 28.632C157.725 28.68 157.653 28.712 157.557 28.728C157.461 28.744 157.373 28.752 157.293 28.752C157.181 28.784 157.045 28.8 156.885 28.8C156.725 28.8 156.589 28.8 156.477 28.8C156.253 28.8 156.085 28.808 155.973 28.824C155.861 28.824 155.677 28.84 155.421 28.872L153.981 28.992V29.28C153.981 29.456 154.005 29.632 154.053 29.808C154.101 29.968 154.189 30.136 154.317 30.312C154.397 30.44 154.493 30.56 154.605 30.672C154.717 30.784 154.829 30.856 154.941 30.888C155.037 30.92 155.125 30.952 155.205 30.984C155.285 31.016 155.357 31.048 155.421 31.08C155.501 31.096 155.573 31.096 155.637 31.08C156.069 31.08 156.381 31.032 156.573 30.936C156.781 30.84 157.029 30.72 157.317 30.576C157.381 30.576 157.445 30.544 157.509 30.48C157.589 30.416 157.645 30.376 157.677 30.36C157.757 30.328 157.869 30.248 158.013 30.12C158.173 29.992 158.293 29.912 158.373 29.88C158.421 29.912 158.437 30.024 158.421 30.216C158.405 30.392 158.413 30.56 158.445 30.72V30.984V31.464C158.365 31.56 158.301 31.632 158.253 31.68C158.221 31.712 158.189 31.744 158.157 31.776C158.141 31.808 158.109 31.848 158.061 31.896C158.013 31.944 157.941 32.016 157.845 32.112C157.557 32.4 157.253 32.592 156.933 32.688C156.757 32.784 156.565 32.856 156.357 32.904C156.149 32.936 155.981 32.976 155.853 33.024C155.773 33.04 155.701 33.048 155.637 33.048C155.573 33.064 155.509 33.072 155.445 33.072H155.253C154.949 33.072 154.653 33.064 154.365 33.048C154.077 33.048 153.773 32.968 153.453 32.808C153.341 32.824 153.181 32.792 152.973 32.712C152.781 32.632 152.653 32.552 152.589 32.472C152.413 32.376 152.253 32.256 152.109 32.112C151.981 31.968 151.837 31.84 151.677 31.728C151.453 31.568 151.293 31.4 151.197 31.224C151.101 31.048 151.013 30.864 150.933 30.672C150.853 30.528 150.781 30.368 150.717 30.192C150.653 30.016 150.589 29.84 150.525 29.664C150.525 29.488 150.517 29.32 150.501 29.16C150.501 29 150.501 28.84 150.501 28.68V27.792C150.501 27.504 150.557 27.16 150.669 26.76C150.797 26.36 150.949 26.016 151.125 25.728C151.173 25.664 151.229 25.6 151.293 25.536C151.341 25.472 151.397 25.408 151.461 25.344C151.541 25.28 151.621 25.208 151.701 25.128C151.749 25.112 151.797 25.088 151.845 25.056C151.909 25.024 151.997 24.976 152.109 24.912C152.157 24.88 152.213 24.824 152.277 24.744C152.357 24.664 152.461 24.608 152.589 24.576C152.765 24.512 152.933 24.448 153.093 24.384C153.253 24.304 153.373 24.264 153.453 24.264C153.565 24.264 153.765 24.272 154.053 24.288C154.357 24.304 154.645 24.32 154.917 24.336C155.061 24.352 155.181 24.376 155.277 24.408C155.373 24.44 155.445 24.456 155.493 24.456C155.621 24.472 155.725 24.488 155.805 24.504C155.901 24.52 155.997 24.544 156.093 24.576C156.381 24.672 156.589 24.776 156.717 24.888C156.861 24.984 156.981 25.088 157.077 25.2C157.141 25.28 157.197 25.376 157.245 25.488C157.309 25.584 157.373 25.672 157.437 25.752C157.517 25.848 157.589 25.984 157.653 26.16C157.733 26.32 157.789 26.48 157.821 26.64C157.853 26.768 157.877 26.936 157.893 27.144C157.909 27.352 157.917 27.536 157.917 27.696C157.917 27.856 157.909 27.976 157.893 28.056C157.893 28.136 157.893 28.248 157.893 28.392ZM155.829 27C155.829 26.968 155.829 26.912 155.829 26.832C155.829 26.736 155.813 26.672 155.781 26.64C155.653 26.432 155.469 26.312 155.229 26.28C155.005 26.232 154.805 26.224 154.629 26.256C154.517 26.288 154.445 26.328 154.413 26.376C154.381 26.424 154.333 26.496 154.269 26.592C154.237 26.624 154.213 26.656 154.197 26.688C154.181 26.72 154.157 26.752 154.125 26.784C154.093 26.816 154.069 26.864 154.053 26.928C154.053 26.976 154.045 27.024 154.029 27.072C153.997 27.152 153.981 27.208 153.981 27.24C153.981 27.272 153.997 27.352 154.029 27.48C154.093 27.512 154.213 27.544 154.389 27.576C154.581 27.592 154.773 27.6 154.965 27.6C155.173 27.6 155.365 27.592 155.541 27.576C155.733 27.544 155.861 27.512 155.925 27.48C155.941 27.464 155.925 27.424 155.877 27.36C155.845 27.28 155.829 27.16 155.829 27Z" fill="#15803D"/>
<path d="M33 22.8746L31 41.9991M41 22.8746L33 8M7 22.8746H47M10 22.8746L13.2 38.5992C13.387 39.5736 13.8897 40.4475 14.6206 41.0687C15.3514 41.6899 16.2642 42.0192 17.2 41.9991H36.8C37.7358 42.0192 38.6486 41.6899 39.3794 41.0687C40.1103 40.4475 40.613 39.5736 40.8 38.5992L44.2 22.8746M12 32.4369H42M13 22.8746L21 8M21 22.8746L23 41.9991" stroke="#15803D" stroke-width="3" stroke-linecap="round" stroke-linejoin="round"/>
</svg>
